<?xml version="1.0" encoding="UTF-8"?>
<svg xmlns="http://www.w3.org/2000/svg" xmlns:xlink="http://www.w3.org/1999/xlink" viewBox="0 0 512 512" width="512px" height="512px">
<g id="surface16302616">
<path style=" stroke:none;fill-rule:nonzero;fill:rgb(20.392157%,59.607846%,85.882354%);fill-opacity:1;" d="M 24 256 C 24 384 128 488 256 488 C 384 488 488 384 488 256 C 488 128 384 24 256 24 C 128 24 24 128 24 256 Z M 244 164 C 244 157.199219 249.199219 152 256 152 C 262.800781 152 268 157.199219 268 164 L 268 184 C 268 190.800781 262.800781 196 256 196 C 249.199219 196 244 190.800781 244 184 Z M 244 244 C 244 237.199219 249.199219 232 256 232 C 262.800781 232 268 237.199219 268 244 L 268 348 C 268 354.800781 262.800781 360 256 360 C 249.199219 360 244 354.800781 244 348 Z M 244 244 "/>
</g>
</svg>
