<svg xmlns="http://www.w3.org/2000/svg" xmlns:xlink="http://www.w3.org/1999/xlink" id="Camada_1" data-name="Camada 1" viewBox="0 0 235.63 79.92"><defs><style>.cls-1{fill:#0524dd;}.cls-2{fill:url(#Gradiente_sem_nome_325);}.cls-3{fill:url(#Gradiente_sem_nome_325-2);}</style><linearGradient id="Gradiente_sem_nome_325" x1="-1.82" y1="73.84" x2="27.43" y2="44.59" gradientUnits="userSpaceOnUse"><stop offset="0" stop-color="#0063f2"></stop><stop offset="0.5" stop-color="#0524dd"></stop><stop offset="1" stop-color="#10069f"></stop></linearGradient><linearGradient id="Gradiente_sem_nome_325-2" x1="3.66" y1="29.85" x2="21.94" y2="11.56" xlink:href="#Gradiente_sem_nome_325"></linearGradient></defs><path class="cls-1" d="M75.25,46.93c0,4.27-3.08,7-9.59,7a59.34,59.34,0,0,1-9.53-.62V50.53a76.93,76.93,0,0,0,8.29.67c5.26,0,8-1.12,8-4.33V45.58c0-1.74-.6-3.37-3.79-3.82l-6-.79C58.5,40.46,56,38.44,56,35V33.21C56,28.94,58.62,26,66.19,26a56.22,56.22,0,0,1,7.46.56v2.64a63,63,0,0,0-7.22-.5c-5.33,0-7.57,1.46-7.57,4.49v1.24c0,1.74.59,3.43,3.78,3.82l6,.79c4.2.51,6.57,2.59,6.57,6Z"></path><path class="cls-1" d="M101.24,35.41v3.41a2.48,2.48,0,0,1-2.49,2.49H82.3v3.2c0,5.29,5.21,6.75,9.76,6.75a57.52,57.52,0,0,0,8.23-.57v2.59a57.25,57.25,0,0,1-8.64.62c-6.39,0-12.19-2.19-12.19-10.12V35.41c0-5.51,2.49-9.39,11-9.39S101.24,29.9,101.24,35.41Zm-3.84,3.2a1,1,0,0,0,1-1V34.11c0-3.09-2.55-5.56-8-5.56-4.79,0-8.11,1.91-8.11,5.68v4.38Z"></path><path class="cls-1" d="M103.48,26.64v2.07h5.38V58.39c0,2.65-.71,4.84-4.61,4.84a12.88,12.88,0,0,1-2-.17V65.7a15.45,15.45,0,0,0,2.67.22c4.85,0,6.74-2.64,6.74-6.68V26.64h-8.22Z"></path><rect class="cls-1" x="108.86" y="14.22" width="2.84" height="5.63"></rect><path class="cls-1" d="M135.55,48.62l-8,5.05a6.1,6.1,0,0,1-1.65.23c-5.63,0-8.94-3-8.94-7.48V45.36c0-3.71,2.43-7,9.65-7.31l8.93-.34V34.56c0-4.38-3-5.84-8-5.84-2.36,0-8.28.56-8.28.56v-2.7s6.15-.56,9.41-.56c4.26,0,9.7,1.57,9.7,8.82V53.28h-2.84Zm0-8.38-9.29.39c-4.26.17-6.45,1.91-6.45,4.67v1.63c0,2.08,1.84,4.27,5.09,4.27a6.35,6.35,0,0,0,3.49-.9l7.16-4.49Z"></path><path class="cls-1" d="M143.66,14.22H148V31.08l6.42-4a6.9,6.9,0,0,1,3-1c6.2,0,8.87,3.6,8.87,8.54V44.79c0,7.25-5.38,9.11-11.36,9.11s-11.3-1.86-11.3-9.11ZM148,44.91c0,3.71,2.72,5.22,6.92,5.22s7-1.51,7-5.22v-9c0-3.37-1.7-6.26-4.89-6.26a4.2,4.2,0,0,0-2.76.71L148,34.28Z"></path><path class="cls-1" d="M193.14,35.41v3.92a2.48,2.48,0,0,1-2.48,2.48H174.91v2.48c0,4.66,4.27,5.67,8.64,5.67,2.49,0,6.16-.28,8.64-.56v3.88a68.28,68.28,0,0,1-9.05.62c-6.39,0-12.6-2.19-12.6-10.12V35.41c0-5.51,2.54-9.39,11.36-9.39S193.14,29.9,193.14,35.41Zm-5.37,2.64a1,1,0,0,0,1-1V34.79c0-3.09-2-5.12-6.86-5.12-4.2,0-7,1.46-7,5.23v3.15Z"></path><path class="cls-1" d="M216.37,46.76c0,4.78-3.5,7.14-10.54,7.14a74.22,74.22,0,0,1-9.41-.62V49.46s5.45.62,8.64.62c5.21,0,7.22-.9,7.22-3.49V45.41c0-1.52-.77-2.87-3.73-3.26l-5.68-.73c-3.9-.51-6.57-3-6.57-6.46v-1.8c0-4.78,3.55-7.14,10.24-7.14a74.92,74.92,0,0,1,8.23.56v3.77s-4.32-.51-7.58-.51c-4.79,0-6.8.9-6.8,3.54v1.13c0,1.51.76,2.86,3.72,3.26l5.68.73c4,.5,6.58,3,6.58,6.46Z"></path><path class="cls-1" d="M235.63,53.39a23.23,23.23,0,0,1-4.14.45c-5.27,0-8-2-8-8.09V30.4h-5V26.64h5V19h4.38v7.64h7.75V30.4h-7.75V45.13c0,3,.89,4.72,4,4.72.65,0,3-.17,3.72-.28Z"></path><path class="cls-2" d="M31.43,58.87,12.51,77.79a7.27,7.27,0,0,1-5.14,2.13H7.26A7.26,7.26,0,0,1,0,72.66V53.73H9L22.8,40l8.63,8.64A7.25,7.25,0,0,1,31.43,58.87Z"></path><path class="cls-3" d="M31.43,21.05,12.51,2.13A7.27,7.27,0,0,0,7.37,0H7.26A7.26,7.26,0,0,0,0,7.26V26.19H9L22.8,40l8.63-8.64A7.25,7.25,0,0,0,31.43,21.05Z"></path></svg>