<svg xmlns="http://www.w3.org/2000/svg" id="Camada_1" data-name="Camada 1" viewBox="0 0 235.63 79.92"><defs><style>.cls-1{fill:#fff;}</style></defs><path class="cls-1" d="M65.66,53.6A62.68,62.68,0,0,1,56.43,53V50.87a74.71,74.71,0,0,0,8,.63c4.1,0,8.29-.55,8.29-4.63V45.58c0-1.65-.46-3.61-4-4.12l-6-.79c-4.07-.5-6.31-2.53-6.31-5.71V33.21c0-4.63,3.24-6.89,9.88-6.89a44,44,0,0,1,6.06.4l1.1.13v2a63.37,63.37,0,0,0-6.92-.46c-5.37,0-7.87,1.52-7.87,4.79v1.24c0,1.56.42,3.67,4,4.12l6,.79C71.52,39.7,75,41,75,45.08v1.85C75,51.23,71.65,53.6,65.66,53.6Z"></path><path class="cls-1" d="M91.65,53.6c-7.89,0-11.89-3.31-11.89-9.82V35.41c0-6.29,3.29-9.09,10.65-9.09s10.53,2.8,10.53,9.09v3.41A2.19,2.19,0,0,1,98.75,41H82v3.5c0,6.36,7,7.05,10.07,7.05a60.51,60.51,0,0,0,7.92-.51v2A56.78,56.78,0,0,1,91.65,53.6ZM90.41,28.25c-5.27,0-8.41,2.23-8.41,6v4.68H97.4a1.3,1.3,0,0,0,1.3-1.29V34.11C98.7,31.28,96.52,28.25,90.41,28.25Z"></path><path class="cls-1" d="M105,65.62a15.84,15.84,0,0,1-2.37-.17v-2a12.59,12.59,0,0,0,1.66.12c4.35,0,4.91-2.75,4.91-5.14v-30h-5.38V26.94h7.62v32.3C111.4,63.54,109.29,65.62,105,65.62Z"></path><rect class="cls-1" x="109.16" y="14.52" width="2.24" height="5.03"></rect><path class="cls-1" d="M125.91,53.6c-5.33,0-8.64-2.75-8.64-7.18V45.36c0-4.29,3.32-6.78,9.36-7l9.22-.35V34.56c0-5.51-4.73-6.14-8.29-6.14-2.06,0-6.7.41-8,.53V26.86c1.22-.11,6.29-.54,9.11-.54,3.51,0,9.4,1.11,9.4,8.52V53h-2.24V48.07l-8.45,5.35A6.26,6.26,0,0,1,125.91,53.6Zm.34-13.27c-4.28.17-6.74,2-6.74,5v1.63c0,2.25,2,4.57,5.39,4.57a6.54,6.54,0,0,0,3.65-1l7.3-4.58v-6Z"></path><path class="cls-1" d="M155,53.6c-7.4,0-11-2.88-11-8.81V14.52h3.78v17.1l6.88-4.32a6.67,6.67,0,0,1,2.83-1c5.53,0,8.57,2.93,8.57,8.24V44.79C166,50.72,162.4,53.6,155,53.6Zm1.69-24.25a4.27,4.27,0,0,0-2.52.75l-6.39,4V44.91c0,3.61,2.49,5.52,7.22,5.52s7.28-1.91,7.28-5.52v-9c0-3.26-1.6-6.56-5.19-6.56Z"></path><path class="cls-1" d="M183.14,53.6c-5.61,0-12.3-1.71-12.3-9.82V35.41c0-6.29,3.41-9.09,11.06-9.09s10.94,2.8,10.94,9.09v3.92a2.19,2.19,0,0,1-2.18,2.18h-16v2.78c0,4,2.93,6,8.94,6,2.42,0,5.94-.26,8.34-.52V53A66.73,66.73,0,0,1,183.14,53.6ZM181.9,29.37c-6,0-7.29,3-7.29,5.53v3.45h13.16a1.3,1.3,0,0,0,1.29-1.3V34.79C189.06,32.32,187.82,29.37,181.9,29.37Z"></path><path class="cls-1" d="M205.83,53.6a75.77,75.77,0,0,1-9.11-.58V49.79c1.24.14,5.62.59,8.34.59,4.64,0,7.52-.64,7.52-3.79V45.41c0-2-1.3-3.2-4-3.56l-5.68-.73c-3.83-.49-6.31-2.91-6.31-6.16v-1.8c0-4.54,3.35-6.84,9.94-6.84a63,63,0,0,1,7.11.45l.82.08V30c-1.08-.11-4.57-.47-7.28-.47-4.26,0-7.1.66-7.1,3.84v1.13c0,2,1.3,3.2,4,3.56l5.69.73c3.89.49,6.31,2.86,6.31,6.16v1.8C216.07,51.36,212.72,53.6,205.83,53.6Z"></path><path class="cls-1" d="M231.49,53.54c-5.46,0-7.69-2.25-7.69-7.79V30.1h-5V26.94h5V19.3h3.78v7.64h7.75V30.1h-7.75v15c0,2.48.52,5,4.33,5,.56,0,2.44-.13,3.42-.24v3.24A24.87,24.87,0,0,1,231.49,53.54Z"></path><path class="cls-1" d="M7.26,79.62a7,7,0,0,1-7-7V54H9.15L22.8,40.38l8.42,8.43a7,7,0,0,1,0,9.85L12.3,77.58a6.92,6.92,0,0,1-4.93,2Z"></path><path class="cls-1" d="M9.15,25.89H.3V7.26a7,7,0,0,1,7-7h.11a6.92,6.92,0,0,1,4.93,2L31.22,21.26a7,7,0,0,1,0,9.85L22.8,39.54Z"></path></svg>